<svg xmlns="http://www.w3.org/2000/svg" width="54" height="54">
    <path fill="#E4FAFE" fill-rule="evenodd" d="M10 0h34c5.523 0 10 4.477 10 10v34c0 5.523-4.477 10-10 10H10C4.477 54 0 49.523 0 44V10C0 4.477 4.477 0 10 0z"/>
    <path fill="#01D7FF" fill-rule="evenodd" d="M37.28 42H17.719c-.95 0-1.723-.764-1.723-1.704V12.973c0-.939.773-1.703 1.723-1.703h4.857v-.163c0-.61.502-1.107 1.12-1.107h7.607c.618 0 1.12.497 1.12 1.107v.163h4.857c.95 0 1.723.764 1.723 1.703v27.323c0 .94-.773 1.704-1.723 1.704zm-.249-28.781h-4.608v.163c0 .61-.502 1.107-1.12 1.107h-7.607c-.618 0-1.12-.497-1.12-1.107v-.163h-4.608V40.05h19.063V13.219zm-14.623 4.973h10.183c.544 0 .986.436.986.974 0 .539-.442.975-.986.975H22.408c-.544 0-.986-.436-.986-.975 0-.538.442-.974.986-.974zm0 5.497h10.183c.544 0 .986.437.986.975s-.442.975-.986.975H22.408c-.544 0-.986-.437-.986-.975s.442-.975.986-.975zm.881 8.246c.411-.353 1.034-.309 1.391.097l2.467 2.807 4.41-5.261c.348-.414.969-.471 1.389-.128.419.343.477.958.13 1.373l-5.152 6.145c-.185.221-.459.35-.748.353h-.012c-.285 0-.557-.122-.744-.336l-3.229-3.675c-.357-.406-.313-1.022.098-1.375z"/>
</svg>
