<svg xmlns="http://www.w3.org/2000/svg" width="54" height="54">
    <path fill="#FEF3F9" fill-rule="evenodd" d="M10 0h34c5.523 0 10 4.477 10 10v34c0 5.523-4.477 10-10 10H10C4.477 54 0 49.523 0 44V10C0 4.477 4.477 0 10 0z"/>
    <path fill="#FEBFE3" fill-rule="evenodd" d="M36.891 42.998H18.107c-1.162 0-2.107-.93-2.107-2.073V18.193c0-1.143.945-2.073 2.107-2.073h3.948v-.532c0-.458.377-.829.843-.829h2.472l.04-.56c-.651-.411-1.066-1.128-1.066-1.919 0-1.26 1.041-2.284 2.321-2.284h1.557c1.28 0 2.321 1.024 2.321 2.284 0 .755-.375 1.442-.978 1.862l.044.617h2.395c.466 0 .843.371.843.829v.532h4.044c1.163 0 2.108.93 2.108 2.073v22.732c0 1.143-.945 2.073-2.108 2.073zm-13.15-26.581v2.563h1.328l.183-2.563h-1.511zm4.296 0h-1.096l-.182 2.563h1.46l-.182-2.563zm.384-3.544c.261-.085.436-.324.436-.593 0-.345-.285-.626-.635-.626h-1.557c-.35 0-.635.281-.635.626 0 .283.195.531.474.603.392.101.656.462.628.86l-.072 1.016h.859l-.074-1.041c-.027-.378.21-.727.576-.845zm2.74 3.544h-1.434l.182 2.563h1.252v-2.563zm5.871 1.776c0-.074-.066-.139-.141-.139h-4.044v1.755c0 .459-.377.83-.843.83H22.898c-.466 0-.843-.371-.843-.83v-1.755h-3.948c-.075 0-.141.065-.141.139v22.732c0 .074.066.138.141.138h18.784c.075 0 .141-.064.141-.138V18.193zm-3.889 19.155H21.784c-.543 0-.983-.433-.983-.967s.44-.968.983-.968h11.359c.543 0 .983.434.983.968s-.44.967-.983.967zm0-5.507H21.784c-.543 0-.983-.433-.983-.967s.44-.968.983-.968h11.359c.543 0 .983.434.983.968s-.44.967-.983.967zm0-5.508H21.784c-.543 0-.983-.432-.983-.967 0-.534.44-.967.983-.967h11.359c.543 0 .983.433.983.967 0 .535-.44.967-.983.967z"/>
</svg>
