<svg xmlns="http://www.w3.org/2000/svg" width="54" height="54">
    <path fill="#ECF6FE" fill-rule="evenodd" d="M10 0h34c5.523 0 10 4.477 10 10v34c0 5.523-4.477 10-10 10H10C4.477 54 0 49.523 0 44V10C0 4.477 4.477 0 10 0z"/>
    <path fill="#50B5FF" fill-rule="evenodd" d="M44.948 36.762c-.136.394-.508.659-.928.659l-5.993.001v1.495c0 1.149-.942 2.083-2.1 2.083h-20.83c-1.158 0-2.1-.934-2.1-2.083V15.16c0-1.149.942-2.083 2.1-2.083h2.922v-1.105c0-.537.438-.972.979-.972.541 0 .98.435.98.972v1.105h4.614v-1.105c0-.537.439-.972.98-.972.541 0 .98.435.98.972v1.105h4.493v-1.105c0-.537.439-.972.98-.972.541 0 .98.435.98.972v1.105h2.922c1.057 0 1.925.78 2.07 1.789.006.034.024.063.027.098.013.167 1.383 16.738 6.593 20.715.333.253.466.689.331 1.083zm-29.991 2.155c0 .074.066.139.14.139h20.83c.074 0 .14-.065.14-.139V20.253h-21.11v18.664zm20.97-23.896h-2.922v1.269c0 .537-.439.972-.98.972-.541 0-.98-.435-.98-.972v-1.269h-4.493v1.269c0 .537-.439.972-.98.972-.541 0-.98-.435-.98-.972v-1.269h-4.614v1.269c0 .537-.439.972-.98.972-.541 0-.979-.435-.979-.972v-1.269h-2.922c-.074 0-.14.065-.14.139v3.149h21.11V15.16c0-.074-.066-.139-.14-.139zm2.1 11.669v8.788l3.722-.001c-1.662-2.235-2.864-5.512-3.722-8.787zm-5.303 8.679H18.3c-.542 0-.98-.435-.98-.972 0-.536.438-.972.98-.972h14.424c.541 0 .98.436.98.972 0 .537-.439.972-.98.972zm0-4.891H18.3c-.542 0-.98-.435-.98-.972 0-.537.438-.972.98-.972h14.424c.541 0 .98.435.98.972 0 .537-.439.972-.98.972zm0-4.891H18.3c-.542 0-.98-.436-.98-.972 0-.537.438-.972.98-.972h14.424c.541 0 .98.435.98.972 0 .536-.439.972-.98.972z"/>
</svg>
