<svg height="512pt" viewBox="0 -35 512 512" width="512pt" xmlns="http://www.w3.org/2000/svg">
    <path d="m486.789062 0h-461.578124c-13.902344 0-25.210938 11.308594-25.210938 25.210938v392.386718c0 13.898438 11.308594 25.210938 25.210938 25.210938h461.578124c13.902344 0 25.210938-11.3125 25.210938-25.210938v-392.386718c0-13.902344-11.308594-25.210938-25.210938-25.210938zm-4.789062 30v79.195312h-452v-79.195312zm-452 382.804688v-273.609376h452v273.609376zm0 0" />
    <path d="m269.734375 308.078125c-8.28125 0-15 6.71875-15 15v12.691406h-70.613281v-119.539062h70.613281v12.695312c0 8.28125 6.71875 15 15 15 8.285156 0 15-6.71875 15-15v-27.695312c0-8.28125-6.714844-15-15-15h-100.613281c-8.285156 0-15 6.71875-15 15v149.539062c0 8.285157 6.714844 15 15 15h100.613281c8.285156 0 15-6.714843 15-15v-27.691406c0-8.28125-6.714844-15-15-15zm0 0" />
    <path d="m323.890625 236.128906c-5.894531-5.824218-15.390625-5.769531-21.214844.117188-5.824219 5.894531-5.769531 15.390625.121094 21.214844l3.582031 3.542968h-73.105468c-8.285157 0-15 6.714844-15 15 0 8.28125 6.714843 15 15 15h73.105468l-3.582031 3.539063c-5.890625 5.824219-5.945313 15.320312-.121094 21.214843 2.9375 2.964844 6.800781 4.453126 10.667969 4.453126 3.808594 0 7.621094-1.445313 10.546875-4.335938l29.535156-29.207031c2.851563-2.816407 4.453125-6.65625 4.453125-10.664063 0-4.011718-1.601562-7.851562-4.453125-10.667968zm0 0" />
    <path d="m449.445312 69.597656c0 10.648438-8.632812 19.28125-19.285156 19.28125-10.648437 0-19.28125-8.632812-19.28125-19.28125 0-10.648437 8.632813-19.28125 19.28125-19.28125 10.652344 0 19.285156 8.632813 19.285156 19.28125zm0 0" />
    <path d="m393.464844 69.597656c0 10.648438-8.632813 19.28125-19.28125 19.28125-10.652344 0-19.285156-8.632812-19.285156-19.28125 0-10.648437 8.632812-19.28125 19.285156-19.28125 10.648437 0 19.28125 8.632813 19.28125 19.28125zm0 0" />
    <path d="m337.484375 69.597656c0 10.648438-8.632813 19.28125-19.285156 19.28125-10.648438 0-19.28125-8.632812-19.28125-19.28125 0-10.648437 8.632812-19.28125 19.28125-19.28125 10.652343 0 19.285156 8.632813 19.285156 19.28125zm0 0" />
</svg>