<svg height="512" viewBox="0 0 60 58" width="512" xmlns="http://www.w3.org/2000/svg">
    <g id="Page-1" fill="none" fill-rule="evenodd">
        <g id="022---Volume-Calculations" fill="rgb(0,0,0)" fill-rule="nonzero">
            <path id="Shape" d="m59.6 48.2c-.4418278-.3313708-1.0686292-.2418278-1.4.2l-1.2 1.6v-20.889l1.187 1.657c.3225343.4490075.9479925.5515343 1.397.229s.5515343-.9479925.229-1.397l-3-4.186c-.1861274-.2586005-.4843456-.4130266-.8029519-.415792-.3186063-.0027653-.6194601.1464612-.8100481.401792l-3 4c-.2143594.2858125-.2599564.6642734-.1196152.9928203.1403411.3285469.4452994.5572656.8.6.3547005.0427344.7052558-.1070078.9196152-.3928203l1.2-1.6v21l-1.2-1.6c-.3313708-.4418278-.9581722-.5313708-1.4-.2s-.5313708.9581722-.2 1.4l3 4c.1888544.2518058.4852427.4.8.4s.6111456-.1481942.8-.4l3-4c.3313708-.4418278.2418278-1.0686292-.2-1.4z" />
            <path id="Shape" d="m49.53 20c.5025791-.2319596.7219596-.8274209.49-1.33s-.8274209-.7219596-1.33-.49l-5.69 2.71-18.68-8.89 4.3-2.05c.348435-.13684641.5912597-.45684055.6292692-.82925052.0380096-.37240998-.1351621-.73486224-.4487665-.93927886-.3136045-.20441661-.7151174-.21656061-1.0405027-.03147062l-6.29 3-20.85 9.93c-.37540514.1509652-.62098804.5153785-.62.92v25c-.00337637.3859473.21964328.7380836.57.9l21 10c.271145.1334096.588855.1334096.86 0l20.562-9.8 5.579 2.649c.3240088.1633524.7110822.1383723 1.0114066-.065272s.4667701-.5539951.4349157-.9154519-.2570101-.6772966-.5883223-.8252761l-5.429-2.575v-22.788l4.57 2.17c.1336805.0661125.2808651.1003415.43.1.4650414-.0027226.8668277-.3256708.9694796-.7792493.102652-.4535786-.1209272-.9180568-.5394796-1.1207507l-4.1-1.95 4.09-1.95zm-39.39 26.93c-.16540268.3472838-.51534056.5689111-.9.57-.14926073.0014682-.29670376-.0328209-.43-.1l-4.24-2.02c-.35035672-.1619164-.57337637-.5140527-.57-.9v-4.48c.00000001-.5522847.44771526-1 1-1s.99999999.4477153 1 1v3.85l3.67 1.74c.24079997.1145232.4258895.3204738.5141435.5720915.0882539.2516176.0723624.5280615-.0441435.7679085z" />
            <path id="Shape" d="m56.271 13.542-2.325-4.426c-.1611956-.32508723-.4858424-.53734715-.8482885-.55462634-.3624461-.01727918-.7058131.16313399-.8972036.47141209-.1913906.3082781-.20077.69604329-.0245079 1.01321425l.929 1.77-18.865-8.966 2-.361c.351728-.06323601.643002-.30931313.764102-.6455365.1211-.33622336.053628-.71151264-.177-.9845-.230628-.27298735-.589374-.40219951-.941102-.3389635l-5.068.913c-.3134655.05650008-.5812652.25895005-.7210972.5451316s-.134968.62185853.0130972.9038684l2.33 4.427c.1729008.32918502.5141702.53525626.886.535.1617832.00051397.3211823-.03899227.464-.115.4886457-.25691755.6766488-.86121306.42-1.35l-.93-1.771 18.967 9.015-1.96.4c-.5034786.1022344-.8475737.5693469-.7959422 1.0804992.0516316.5111523.4821891.9000171.9959422.8995008.0671773.0002341.1341993-.0064681.2-.02l4.9-.993c.3085012-.0624404.5696005-.2664853.7047493-.5507503.1351488-.2842651.128573-.6155714-.0177493-.8942497z" />
        </g>
    </g>
</svg>