<svg xmlns="http://www.w3.org/2000/svg" width="10" height="10" viewBox="0 0 10 10">
    <path fill="#999" fill-rule="nonzero" d="M9.531 4.531A.469.469 0 0 0 9.062 5 4.063 4.063 0 0 1 5 9.063c-1.37 0-2.58-.68-3.314-1.72H2.5a.469.469 0 1 0 0-.937H.469A.469.469 0 0 0 0 6.875V8.75a.469.469 0 1 0 .938 0v-.852A4.975 4.975 0 0 0 5 10a5 5 0 0 0 5-5 .469.469 0 0 0-.469-.469zm0-3.75a.469.469 0 0 0-.469.469v.846A4.982 4.982 0 0 0 5 0a5 5 0 0 0-5 5 .469.469 0 1 0 .938 0A4.063 4.063 0 0 1 5 .937c1.369 0 2.573.681 3.307 1.72H7.5a.469.469 0 1 0 0 .937h2.031c.26 0 .469-.21.469-.469V1.25a.469.469 0 0 0-.469-.469z"/>
</svg>
