<svg xmlns="http://www.w3.org/2000/svg" width="320" height="98" viewBox="0 0 320 98">
    <path fill="#333" d="M52.193 128.006a17.12 17.12 0 0 1-7.472-2.3l-24.07-14.033a17.465 17.465 0 0 1-8.629-15.1V68.5a17.509 17.509 0 0 1 5.862-13.089l.046-.037a17.994 17.994 0 0 1 7.244-3.674c.019 0 .035-.014.054-.019a17.031 17.031 0 0 1 3.39-.468h.036c.174 0 .342-.047.517-.047h.6a17.02 17.02 0 0 1 2.849.274h.04a17.066 17.066 0 0 1 4.761 1.572c.326.163.66.3.977.486l4.1 2.393 5.081 2.963.6.352 6.025 3.514 8.257 4.816a17.465 17.465 0 0 1 8.628 15.1v8.974l-6.71 3.917-8.669-5.062c-5.086-3.167-8.191-3.579-8.191-9.638L47.5 66.179h.015l-.015-.009-6.041-3.523v23.177c.1 3.615 2.171 4.6 5.625 6.614l4.265 2.487 13.036 7.6 6.71-3.916v12.1a17.453 17.453 0 0 1-.276 2.953c0 .019 0 .038-.006.056a17.432 17.432 0 0 1-1.085 3.7v.014a17.422 17.422 0 0 1-1.632 3c-.009.013-.013.027-.022.039a17.392 17.392 0 0 1-1.515 2.013l-.12.129c-.074.079-.151.156-.226.234l-.169.175c-.3.3-.615.582-.936.856a17.152 17.152 0 0 1-10.328 4.094c-.268.013-.535.027-.8.027zm-31-68.094l-.066.056a11.446 11.446 0 0 0-3.764 8.5v28.071a11.437 11.437 0 0 0 5.629 9.863l24.069 14.037a11.188 11.188 0 0 0 4.674 1.477h1.555c.135 0 .27-.008.405-.015l.117-.006a11.189 11.189 0 0 0 5.112-1.53L56.06 118.7l-19.942-11.627-4.106-2.394c-5.311-3.1-8.591-6.059-8.625-12.249V58.49a10.425 10.425 0 0 0-2.196 1.422zm8.221 31.247c0 3.837 2.169 6.268 5.625 8.284L63.12 115.81c.131-.252.257-.5.358-.748v-.01a11.775 11.775 0 0 0 .654-2.1l.061-.364a11.377 11.377 0 0 0 .189-1.92v-1.153l-16.115-9.391-4.212-2.456c-5.305-3.094-8.583-4.623-8.625-10.8V59.132l-.7-.407s-.528-.25-.689-.331a11.078 11.078 0 0 0-2.862-.981l-.258-.044a12.47 12.47 0 0 0-1.518-.179zm24.127-11.376a4.527 4.527 0 0 0 1.859 3.475 3.981 3.981 0 0 0 .405.261l.513.3 8.074 4.712V82.6a11.438 11.438 0 0 0-5.629-9.863l-5.231-3.051zM71 119.053c.041-.042.08-.085.12-.128a17.976 17.976 0 0 0 4.541-11.78v-11.2l5.081-2.965v10.647a18.679 18.679 0 0 1-4.541 11.78l-.12.129c-.074.079-.151.156-.227.234-.057.058-.112.118-.169.175-.3.3-.615.582-.936.856a17.193 17.193 0 0 1-3.976 2.487c.077-.078.154-.155.227-.235zm10.161-7.037l.12-.128a17.993 17.993 0 0 0 4.54-11.781V90.013l5.079-2.965v9.54a17.483 17.483 0 0 1-3.026 9.767 17.248 17.248 0 0 1-1.515 2.013l-.12.129c-.073.079-.15.157-.226.234l-.169.176c-.3.3-.615.581-.936.856a17.2 17.2 0 0 1-3.975 2.488c.078-.078.155-.151.228-.235zm139.765-3.537v-5.824h2.934a9.625 9.625 0 0 0 5.867-1.892 10.1 10.1 0 0 0 3.575-4.849l.134-.386h-9.576a15.437 15.437 0 0 1-6.118-1.235 15.986 15.986 0 0 1-8.476-8.518 16.052 16.052 0 0 1 0-12.326 15.824 15.824 0 0 1 3.409-5.016 16.329 16.329 0 0 1 5.067-3.393 15.841 15.841 0 0 1 12.27 0 15.924 15.924 0 0 1 8.372 8.41 15.554 15.554 0 0 1 1.23 6.18v12.95a15.552 15.552 0 0 1-1.23 6.18 16.477 16.477 0 0 1-3.379 5.055 15.7 15.7 0 0 1-4.993 3.428 15.363 15.363 0 0 1-6.153 1.235zm-.971-38.072a9.951 9.951 0 0 0-3.208 2.148 10.114 10.114 0 0 0-2.138 3.184 9.842 9.842 0 0 0-.775 3.891 10.088 10.088 0 0 0 .773 3.926 9.964 9.964 0 0 0 9.252 6.148h10.029V79.631a9.9 9.9 0 0 0-.775-3.892 10.157 10.157 0 0 0-2.138-3.184 10.147 10.147 0 0 0-11.022-2.148zM91.322 104.978l.121-.128a17.528 17.528 0 0 0 4.54-11.781v-8.986l5.081-2.965v8.433a17.524 17.524 0 0 1-4.541 11.78l-.12.129q-.194.208-.4.41c-.3.3-.614.582-.936.856a17.2 17.2 0 0 1-3.975 2.488c.08-.079.157-.156.23-.236zm221.452-10.506a15.711 15.711 0 0 1-5.135-3.462 15.081 15.081 0 0 1-3.446-5.26 16.635 16.635 0 0 1-1.126-5.975 16.375 16.375 0 0 1 1.126-5.94 15.163 15.163 0 0 1 3.446-5.223 15.449 15.449 0 0 1 5.238-3.5 15.742 15.742 0 0 1 11.889 0 15.508 15.508 0 0 1 5.239 3.5l2.017 2.024-17.629 17.71-.283.284.357.179a9.618 9.618 0 0 0 4.358 1.049 10.426 10.426 0 0 0 1.578-.123 9.723 9.723 0 0 0 5.5-2.851l2.017-2.026 4.106 4.123-2.017 2.026a15.765 15.765 0 0 1-17.232 3.462zm4.467-24.624a9.538 9.538 0 0 0-5.5 2.816 9.954 9.954 0 0 0-1.915 11.486l.178.358.283-.283L312.9 81.6l2.744-2.759.978-.982q1.969-1.977 3.793-3.776t2.833-2.808l.283-.285-.358-.179a9.875 9.875 0 0 0-4.456-1.068 10.594 10.594 0 0 0-1.476.105zm-21.418 25.681a15.434 15.434 0 0 1-6.117-1.235 16 16 0 0 1-8.479-8.518A15.634 15.634 0 0 1 280 79.631V50.855h5.8v19.426h12.892V76.1h-12.898v3.527a10.146 10.146 0 0 0 .773 3.926 9.964 9.964 0 0 0 9.255 6.148h2.864v5.825zm-36.079 0a15.436 15.436 0 0 1-6.118-1.235 15.988 15.988 0 0 1-8.476-8.518 16.055 16.055 0 0 1 0-12.326 15.817 15.817 0 0 1 3.409-5.016 16.328 16.328 0 0 1 5.068-3.393 15.84 15.84 0 0 1 12.27 0 15.924 15.924 0 0 1 8.372 8.41 15.548 15.548 0 0 1 1.231 6.18v15.9zm-3.906-25.122a9.957 9.957 0 0 0-3.208 2.148 10.12 10.12 0 0 0-2.138 3.184 9.849 9.849 0 0 0-.775 3.891 10.117 10.117 0 0 0 2.912 7.148 10.025 10.025 0 0 0 7.114 2.926h9.957V79.631a9.9 9.9 0 0 0-.775-3.892 10.039 10.039 0 0 0-5.307-5.332 9.736 9.736 0 0 0-3.875-.778 9.991 9.991 0 0 0-3.905.778zM167.954 93.93a21.158 21.158 0 0 1-7.154-4.778 20.73 20.73 0 0 1-4.7-7.128 22.463 22.463 0 0 1 0-16.365 20.729 20.729 0 0 1 4.7-7.125 21.162 21.162 0 0 1 7.156-4.779 21.507 21.507 0 0 1 16.275 0 21.142 21.142 0 0 1 7.154 4.778l2.057 2.069-4.135 4.222-2.126-2.069a15.506 15.506 0 0 0-5.207-3.483 15.559 15.559 0 0 0-11.766 0 15.4 15.4 0 0 0-5.174 3.452 14.508 14.508 0 0 0-3.5 5.155 15.766 15.766 0 0 0 0 11.817A15.5 15.5 0 0 0 165 84.93a15.153 15.153 0 0 0 11.1 4.638 15.982 15.982 0 0 0 5.984-1.156 14.216 14.216 0 0 0 5.083-3.464l2.145-2.087 4.135 4.222-2.056 2.068a21.148 21.148 0 0 1-7.155 4.779 21.511 21.511 0 0 1-16.277 0zm-28.57 1.6v-9.216h-20.138a.93.93 0 0 1-.84-.523.942.942 0 0 1 .094-.989l24.417-32.269a.96.96 0 0 1 .754-.373.916.916 0 0 1 .294.049.941.941 0 0 1 .639.892v27.974h6.072v5.239H144.6v9.213zm-.518-29l-10.633 14.081-.351.464h11.5v-15.23zM75.661 79.07a17.466 17.466 0 0 0-8.629-15.1L42.963 49.935c-.317-.185-.652-.323-.977-.486a17.787 17.787 0 0 0-7.65-1.85h-.6c-.175 0-.343.042-.517.047a17.362 17.362 0 0 0-6.43 1.5c.259-.262.465-.569.741-.814l.045-.038a18.12 18.12 0 0 1 7.3-3.69 16.921 16.921 0 0 1 3.426-.472c.174-.006.342-.047.517-.047h.6a18.168 18.168 0 0 1 8.628 2.336l24.067 14.033a17.466 17.466 0 0 1 8.629 15.1v10.43l-5.081 2.966zm10.161-7.037a17.465 17.465 0 0 0-8.629-15.1L53.124 42.9a17.119 17.119 0 0 0-8.624-2.338h-.6c-.175 0-.342.042-.517.047a17.366 17.366 0 0 0-6.43 1.5c.259-.262.465-.569.741-.814l.046-.038a17.227 17.227 0 0 1 4.294-2.668 18.156 18.156 0 0 1 6.946-1.542h.6a17.109 17.109 0 0 1 8.62 2.332l24.073 14.037a17.466 17.466 0 0 1 8.629 15.1V80.05l-5.081 2.966zM95.983 65a17.466 17.466 0 0 0-8.629-15.1L63.285 35.86a17.114 17.114 0 0 0-8.628-2.335h-.6a16.992 16.992 0 0 0-6.946 1.542c.259-.261.464-.568.74-.814l.046-.038a17.15 17.15 0 0 1 11.239-4.209h.6a17.111 17.111 0 0 1 8.628 2.336l24.07 14.037a17.465 17.465 0 0 1 8.629 15.1v12.639l-5.081 2.966z" transform="translate(-12.022 -30.006)"/>
</svg>
