<svg height="512" viewBox="0 0 64 64" width="512" xmlns="http://www.w3.org/2000/svg">
    <g id="Analysis_Report" data-name="Analysis Report">
        <path d="m54.462 32a16.781 16.781 0 0 0 1.538-7h-17a1 1 0 0 1 -1-1v-15.971a17 17 0 0 0 1 33.971c.329 0 .662-.012 1-.032v-6.968a3 3 0 0 1 3-3z" />
        <path d="m46 54h2v2h-2z" />
        <path d="m46 46h2v2h-2z" />
        <path d="m54 54h2v2h-2z" />
        <path d="m10 5.414-4.586 4.586h4.586z" />
        <path d="m44 4.029v14.971h15.882a16.984 16.984 0 0 0 -15.882-14.971z" />
        <path d="m19 42a7 7 0 1 0 7 7 7.009 7.009 0 0 0 -7-7zm0 6a2.993 2.993 0 0 1 1 5.816v1.184h-2v-1.184a3 3 0 0 1 -2-2.816h2a1 1 0 1 0 1-1 2.993 2.993 0 0 1 -1-5.816v-1.184h2v1.184a3 3 0 0 1 2 2.816h-2a1 1 0 1 0 -1 1z" />
        <path d="m20 25a19.017 19.017 0 0 1 14-18.31v-2.69h-22v7a1 1 0 0 1 -1 1h-7v48h30v-16.69a19.017 19.017 0 0 1 -14-18.31zm-12-9h10v2h-10zm0 6h10v2h-10zm0 6h10v2h-10zm0 6h10v2h-10zm11 24a9 9 0 1 1 9-9 9.01 9.01 0 0 1 -9 9z" />
        <path d="m46 38h10v2h-10z" />
        <path d="m54 46h2v2h-2z" />
        <path d="m59 34h-16a1 1 0 0 0 -1 1v24a1 1 0 0 0 1 1h16a1 1 0 0 0 1-1v-24a1 1 0 0 0 -1-1zm-9 23a1 1 0 0 1 -1 1h-4a1 1 0 0 1 -1-1v-4a1 1 0 0 1 1-1h4a1 1 0 0 1 1 1zm0-8a1 1 0 0 1 -1 1h-4a1 1 0 0 1 -1-1v-4a1 1 0 0 1 1-1h4a1 1 0 0 1 1 1zm8 8a1 1 0 0 1 -1 1h-4a1 1 0 0 1 -1-1v-4a1 1 0 0 1 1-1h4a1 1 0 0 1 1 1zm0-8a1 1 0 0 1 -1 1h-4a1 1 0 0 1 -1-1v-4a1 1 0 0 1 1-1h4a1 1 0 0 1 1 1zm0-8a1 1 0 0 1 -1 1h-12a1 1 0 0 1 -1-1v-4a1 1 0 0 1 1-1h12a1 1 0 0 1 1 1z" />
    </g>
</svg>