<svg id="Layer_1" enable-background="new 0 0 512 512" height="512" viewBox="0 0 512 512" width="512" xmlns="http://www.w3.org/2000/svg">
    <path d="m452 74.5h-139.427c-8.254-23.281-30.498-40-56.573-40s-48.318 16.719-56.573 40h-139.427c-33.084 0-60 26.916-60 60v283c0 33.084 26.916 60 60 60h392.063c33.05-.034 59.938-26.95 59.938-60v-283c-.001-33.084-26.917-60-60.001-60zm-196 0c11.028 0 20 8.972 20 20s-8.972 20-20 20-20-8.972-20-20 8.972-20 20-20zm216 343c0 11.017-8.963 19.989-19.958 20h-392.042c-11.028 0-20-8.972-20-20v-283c0-11.028 8.972-20 20-20h139.44c8.256 23.278 30.487 40 56.56 40s48.303-16.722 56.56-40h139.44c11.028 0 20 8.972 20 20zm-157-189h118v40h-118zm0 81h118v40h-118zm-84.751-13.428c7.386-10.32 11.751-22.942 11.751-36.572 0-34.738-28.262-63-63-63s-63 28.262-63 63c0 13.996 4.593 26.936 12.343 37.405-28.952 17.538-48.343 49.344-48.343 85.595h40c0-33.084 26.916-60 60-60s60 26.916 60 60h40c0-36.835-20.022-69.077-49.751-86.428zm-51.249-59.572c12.682 0 23 10.318 23 23s-10.318 23-23 23-23-10.318-23-23 10.318-23 23-23z" />
</svg>