<svg height="512pt" viewBox="-86 0 512 512" width="512pt" xmlns="http://www.w3.org/2000/svg">
    <path d="m270 50c0-11.027344 8.972656-20 20-20v-30h-180c-27.570312 0-50 22.429688-50 50v132h210zm0 0" />
    <path d="m320 10.027344v49.972656c-11.046875 0-20 8.953125-20 20v13h40v-43c0-16.324219-7.863281-30.84375-20-39.972656zm0 0" />
    <path d="m300 125.578125v86.421875h-270v-86.421875c-17.460938 6.195313-30 22.867187-30 42.421875v299c0 24.8125 20.1875 45 45 45h240c24.8125 0 45-20.1875 45-45v-299c0-19.554688-12.539062-36.226562-30-42.421875zm-192 326.421875h-48v-30h48zm0-60h-48v-30h48zm0-60h-48v-30h48zm81 120h-48v-30h48zm0-60h-48v-30h48zm0-60h-48v-30h48zm81 120h-48v-30h48zm0-60h-48v-30h48zm0-60h-48v-30h48zm0-60h-210v-30h210zm0 0" />
</svg>