<svg id="_x33_dimension" enable-background="new 0 0 300 300" height="512" viewBox="0 0 300 300" width="512" xmlns="http://www.w3.org/2000/svg">
    <g>
        <path d="m98.849 185.353 56 24 .006-.013c1.001.429 2.069.66 3.147.66 1.067 0 2.14-.214 3.15-.646l56-24c2.941-1.261 4.848-4.154 4.848-7.354v-64c0-3.2-1.907-6.093-4.849-7.354l-56-24c-2.012-.861-4.291-.861-6.303 0l-56 24c-2.941 1.261-4.848 4.154-4.848 7.354v64c0 3.2 1.907 6.093 4.849 7.353zm107.151-12.629-40 17.144v-46.593l40-17.143zm-48-74.02 35.691 15.296-35.691 15.296-35.691-15.296zm-48 27.428 40 17.143v46.592l-40-17.143z" />
        <path d="m75.657 204.343c-3.125-3.123-8.189-3.123-11.314 0l-2.343 2.343v-153.372l2.343 2.343c1.562 1.562 3.609 2.343 5.657 2.343s4.095-.781 5.657-2.343c3.124-3.125 3.124-8.189 0-11.314l-16-16c-3.125-3.123-8.189-3.123-11.314 0l-16 16c-3.124 3.125-3.124 8.189 0 11.314 3.125 3.123 8.189 3.123 11.314 0l2.343-2.343v153.372l-2.343-2.343c-3.125-3.123-8.189-3.123-11.314 0-3.124 3.125-3.124 8.189 0 11.314l16 16c1.562 1.562 3.609 2.343 5.657 2.343s4.095-.781 5.657-2.343l16-16c3.124-3.125 3.124-8.189 0-11.314z" />
        <path d="m267.657 244.343-16-16c-3.125-3.123-8.189-3.123-11.314 0-3.124 3.125-3.124 8.189 0 11.314l2.343 2.343h-153.372l2.343-2.343c3.124-3.125 3.124-8.189 0-11.314-3.125-3.123-8.189-3.123-11.314 0l-16 16c-3.124 3.125-3.124 8.189 0 11.314l16 16c1.562 1.562 3.609 2.343 5.657 2.343s4.095-.781 5.657-2.343c3.124-3.125 3.124-8.189 0-11.314l-2.343-2.343h153.372l-2.343 2.343c-3.124 3.125-3.124 8.189 0 11.314 1.562 1.562 3.609 2.343 5.657 2.343s4.095-.781 5.657-2.343l16-16c3.124-3.125 3.124-8.189 0-11.314z" />
    </g>
</svg>