<?xml version="1.0" encoding="iso-8859-1"?>
<!-- Generator: Adobe Illustrator 19.0.0, SVG Export Plug-In . SVG Version: 6.00 Build 0)  -->
<svg version="1.1" id="Capa_1" xmlns="http://www.w3.org/2000/svg" xmlns:xlink="http://www.w3.org/1999/xlink" x="0px" y="0px"
	 viewBox="0 0 512.024 512.024" style="enable-background:new 0 0 512.024 512.024;" xml:space="preserve">
<g>
	<g>
		<path d="M496.012,224h-192c-8.832,0-16,7.168-16,16v256c0,8.832,7.168,16,16,16h192c8.832,0,16-7.168,16-16V240
			C512.012,231.168,504.844,224,496.012,224z M352.012,448h-32v-32h32V448z M352.012,384h-32v-32h32V384z M416.012,448h-32v-32h32
			V448z M416.012,384h-32v-32h32V384z M480.012,448h-32v-32h32V448z M480.012,384h-32v-32h32V384z M480.012,320h-160v-64h160V320z"
			/>
	</g>
</g>
<g>
	<g>
		<path d="M414.668,0.64L416.012,0h-7.552h-16.896H80.012c-44.128,0-80,35.904-80,80v416c0,5.312,2.624,10.272,7.04,13.248
			c2.688,1.824,5.792,2.752,8.96,2.752c1.984,0,4.032-0.384,5.952-1.152l74.048-29.632l74.048,29.632
			c3.808,1.568,8.064,1.568,11.872,0l74.08-29.632V240c0-26.464,21.536-48,48-48h48v-32h128V71.552
			C480.012,34.176,451.244,3.84,414.668,0.64z M208.012,384h-128c-8.832,0-16-7.168-16-16c0-8.832,7.168-16,16-16h128
			c8.832,0,16,7.168,16,16C224.012,376.832,216.844,384,208.012,384z M208.012,320h-128c-8.832,0-16-7.168-16-16
			c0-8.832,7.168-16,16-16h128c8.832,0,16,7.168,16,16C224.012,312.832,216.844,320,208.012,320z M240.012,192h-160
			c-8.832,0-16-7.168-16-16c0-8.832,7.168-16,16-16h160c8.832,0,16,7.168,16,16C256.012,184.832,248.844,192,240.012,192z
			 M240.012,128h-160c-8.832,0-16-7.168-16-16c0-8.832,7.168-16,16-16h160c8.832,0,16,7.168,16,16
			C256.012,120.832,248.844,128,240.012,128z M448.012,128h-96V96V71.552c0-21.792,17.76-39.552,39.552-39.552h16.896
			c21.792,0,39.552,17.76,39.552,39.552V128z"/>
	</g>
</g>
<g>
</g>
<g>
</g>
<g>
</g>
<g>
</g>
<g>
</g>
<g>
</g>
<g>
</g>
<g>
</g>
<g>
</g>
<g>
</g>
<g>
</g>
<g>
</g>
<g>
</g>
<g>
</g>
<g>
</g>
</svg>
